<svg width="17" height="16" viewBox="0 0 17 16" fill="none" xmlns="http://www.w3.org/2000/svg">
<path d="M15.7969 13.8438C15.9427 13.9896 16.0156 14.1667 16.0156 14.375C16.0156 14.5833 15.9427 14.7604 15.7969 14.9062L14.9219 15.7812C14.776 15.9271 14.599 16 14.3906 16C14.1823 16 14.0052 15.9271 13.8594 15.7812L10.7344 12.6562C10.5885 12.5104 10.5156 12.3333 10.5156 12.125V11.625C9.34896 12.5417 8.01562 13 6.51562 13C4.72396 13 3.19271 12.3646 1.92188 11.0938C0.651042 9.82292 0.015625 8.29167 0.015625 6.5C0.015625 4.70833 0.651042 3.17708 1.92188 1.90625C3.19271 0.635417 4.72396 0 6.51562 0C8.30729 0 9.83854 0.635417 11.1094 1.90625C12.3802 3.17708 13.0156 4.70833 13.0156 6.5C13.0156 8 12.5573 9.33333 11.6406 10.5H12.1406C12.349 10.5 12.526 10.5729 12.6719 10.7188L15.7969 13.8438ZM3.67188 9.34375C4.46354 10.1146 5.41146 10.5 6.51562 10.5C7.61979 10.5 8.55729 10.1146 9.32812 9.34375C10.1198 8.55208 10.5156 7.60417 10.5156 6.5C10.5156 5.39583 10.1198 4.45833 9.32812 3.6875C8.55729 2.89583 7.61979 2.5 6.51562 2.5C5.41146 2.5 4.46354 2.89583 3.67188 3.6875C2.90104 4.45833 2.51562 5.39583 2.51562 6.5C2.51562 7.60417 2.90104 8.55208 3.67188 9.34375Z" fill="white"/>
</svg>
